<svg version="1.1" viewBox="0.0 0.0 960.0 960.0" fill="none" stroke="none" stroke-linecap="square" stroke-miterlimit="10" xmlns:xlink="http://www.w3.org/1999/xlink" xmlns="http://www.w3.org/2000/svg"><clipPath id="p.0"><path d="m0 0l960.0 0l0 960.0l-960.0 0l0 -960.0z" clip-rule="nonzero"/></clipPath><g clip-path="url(#p.0)"><path fill="#4285f4" d="m20.629921 480.0l0 0c0 -253.7031 205.66699 -459.3701 459.3701 -459.3701l0 0c121.83252 0 238.67511 48.39778 324.82367 134.54639c86.14862 86.148605 134.54639 202.99118 134.54639 324.8237l0 0c0 253.70306 -205.66699 459.37006 -459.37006 459.37006l0 0c-253.7031 0 -459.3701 -205.66699 -459.3701 -459.37006z" fill-rule="evenodd"/><path fill="#ffffff" d="m633.2913 370.6719l-41.112732 413.6378l-224.35721 0l-41.112732 -413.6378z" fill-rule="evenodd"/><path fill="#ffffff" d="m245.07086 273.88452l0 0c0 -20.343216 16.491425 -36.834656 36.834656 -36.834656l396.18896 0c9.769165 0 19.138184 3.880783 26.04602 10.78862c6.907837 6.907837 10.788635 16.27687 10.788635 26.046036l0 0l0 0c0 20.3432 -16.491455 36.834625 -36.834656 36.834625l-396.18896 0c-20.343231 0 -36.834656 -16.491425 -36.834656 -36.834625z" fill-rule="evenodd"/></g></svg>